inDegrees=yes
nColumns=22
nRows=31
DataType=double
version=3
OpenSimVersion=4.5
endheader
time	pelvis_tilt	pelvis_list	pelvis_rotation	pelvis_tx	pelvis_ty	pelvis_tz	hip_flexion_r	hip_adduction_r	hip_rotation_r	knee_angle_r	ankle_angle_r	mtp_angle_r	hip_flexion_l	hip_adduction_l	hip_rotation_l	knee_angle_l	ankle_angle_l	mtp_angle_l	lumbar_extension	lumbar_bending	lumbar_rotation
0.3753124540564722	-2.096346981671927	1.606697905877508	-0.5795390961772614	0.4580930159127837	0.8574711458278708	0.008596056744102338	0.892349032694005	3.024133433326347	-4.014373607299003	-12.15596926442738	12.95721283670933	0	31.64066546521042	0.02540960602063144	-6.895231497266418	-47.175058881974	6.000274532023854	0	-2.513110457117905	1.415074017168098	4.787313337562217
0.3866855587248502	-1.955802320853504	1.503577015139373	-0.9577827858404424	0.4706193888708904	0.8565843032717716	0.008828736696899004	-0.5484522801672811	3.138895281456666	-3.966716249996269	-11.39017155233788	13.12271860718268	0	31.64090962971693	-0.03076115431180858	-7.216960191147591	-42.70873211875541	6.201239667078854	0	-2.776339306575566	1.603573508717182	5.217353304722793
0.398058663393228	-1.82887524145636	1.314713592728008	-1.340024965848305	0.4831551279368459	0.8553759787674647	0.009043070096118412	-1.984623244700748	3.332874043594943	-3.945028537361186	-10.60937644595684	13.23776510674377	0	31.50864879798142	-0.1390761011049995	-7.538539775062359	-38.05027100011265	6.384132782611062	0	-3.046577405929209	1.888485532622085	5.632204695388642
0.409431768061606	-1.71699924887841	1.047215748082398	-1.718479347444906	0.4957478087527885	0.8538682813144657	0.009224183945420742	-3.409249615148496	3.598826417972725	-3.963497507050969	-9.833721998140064	13.30401329373009	0	31.23666568569989	-0.2839017115139973	-7.887224278632727	-33.21949336214527	6.506972499579354	0	-3.315527688066982	2.261600155997144	6.026265824072722
0.420804872729984	-1.624442842527129	0.7144604821715167	-2.08572534338676	0.5084348945814318	0.852076469445049	0.009361420075637946	-4.804033442507087	3.923479582063036	-4.032161880631065	-9.099030327475061	13.33884821437739	0	30.82942722224391	-0.440644631329871	-8.276211499233153	-28.25306022749075	6.562891493635025	0	-3.5728307159873	2.706239667496286	6.395788241913957
0.4321779773983618	-1.558073049357925	0.3305682459889144	-2.434985595340832	0.5212490640904672	0.8500118488738457	0.009449876671801704	-6.148620039444285	4.293654057890524	-4.160309389023511	-8.435688055546821	13.34491770309946	0	30.30448658192599	-0.5858548787787984	-8.704637901054779	-23.21004780976044	6.544603478652607	0	-3.805255958628594	3.203935329753744	6.738770291639745
0.4435510820667398	-1.524427927374328	-0.08886342569326405	-2.761683781073713	0.5342148399958677	0.8476871740311573	0.009496448814682855	-7.416623546095645	4.69461530067145	-4.353987456086829	-7.888706732967985	13.35076911865524	0	29.68987694561089	-0.7027527771311297	-9.162036806905448	-18.17625286657342	6.410741800634027	0	-4.000087748183383	3.733200317896626	7.053064306339627
0.4549241867351178	-1.528481951450771	-0.5255370656010466	-3.064222286583912	0.5473242195734561	0.8451184275264092	0.009518350776324612	-8.568525510199912	5.106770495966218	-4.611691775195249	-7.522795713804933	13.37573492276386	0	29.03243314515414	-0.7831230513273461	-9.613396249688041	-13.28157736164553	6.148661348430016	0	-4.151678983734411	4.268334841681625	7.335517626527714
0.4662972914034957	-1.569027622830603	-0.961368909793372	-3.343389788803897	0.5605614869648868	0.8423380567367167	0.00952196917199147	-9.571495389337503	5.506659813968869	-4.915705293937477	-7.402896928061916	13.4445421813256	0	28.37819450033452	-0.8248066983373823	-10.02418263464998	-8.658445418402666	5.758589552635491	0	-4.262648503241693	4.787282533658731	7.582543913880951
0.4776703960718737	-1.641738584593895	-1.360540177243177	-3.595494726225075	0.5738931707896558	0.8393776099231378	0.009507369258831678	-10.41879451332758	5.853053770764162	-5.245323781215152	-7.544879259119593	13.5678496766146	0	27.81855529476938	-0.8143677904372693	-10.34906873230594	-4.533003768792204	5.256714279603715	0	-4.340442508134012	5.246044359871572	7.794119420788999
0.4890435007402516	-1.740008106267457	-1.684174241756681	-3.815113683828435	0.5872905104042869	0.8362772896793396	0.009477002990886356	-11.13131297377019	6.104728756869079	-5.582913309704907	-7.912413854824041	13.74312452333572	0	27.45443232410102	-0.742518988310273	-10.56138216267665	-1.166889937776847	4.729583631799422	0	-4.393449757413967	5.596408958546921	7.968870514992553
0.5004166054086295	-1.854476337423585	-1.912050534962134	-3.99848067371027	0.6007510691231061	0.8330912912143731	0.00943566968869353	-11.74537379927376	6.241540392524825	-5.907760122315005	-8.44878676894726	13.94277597810089	0	27.37470111522615	-0.6234407862129167	-10.65730010969066	1.163191365837086	4.310395861684429	0	-4.428305501934346	5.813267240963656	8.103408793876401
0.5117897100770076	-1.974125412827732	-2.023712454726446	-4.147313601144456	0.6142952007735176	0.8298867468750901	0.009391519309791596	-12.2875936223252	6.241790536066952	-6.201324107395448	-9.118361917985158	14.13454621538623	0	27.63788578682136	-0.4677523501262833	-10.65829422162134	2.22182790284685	4.009733254113746	0	-4.449197516124031	5.87294816307821	8.192860826102541
0.5231628147453854	-2.08862910063376	-1.999695391460583	-4.270974370118689	0.6279962249796698	0.8267336118222794	0.009354135077547119	-12.77432770049085	6.08291227341007	-6.450225849907533	-9.911495711552158	14.2945034208715	0	28.21558909583684	-0.2704077344828867	-10.58743366940191	1.985592575374703	3.760632622102092	0	-4.452969988410493	5.755710684138319	8.230552695101705
0.5345359194137633	-2.189679616146439	-1.829741367654999	-4.381733887154107	0.6419931994297432	0.8236942370609031	0.009338195557535567	-13.23672390920643	5.753772726157704	-6.646801186031676	-10.79182032505421	14.37351708879568	0	28.99381110483292	-0.01759255328322044	-10.43628705663324	0.6663093618969024	3.447005120249425	0	-4.426574692450431	5.452698882612136	8.209905258669137
0.5459090240821414	-2.273783345760411	-1.51983977322846	-4.491341124074719	0.6564551368848132	0.8208202181889175	0.009358124171880538	-13.71417018886329	5.262502707412287	-6.789276416447049	-11.70205771275796	14.30689899708739	0	29.81555729936278	0.3027970900154884	-10.16185824021092	-1.375219386693423	2.819906516248297	0	-4.349304607094131	4.973934498415461	8.126988676241451
0.5572821287505193	-2.341903245213322	-1.095379711852488	-4.61055918851269	0.6715612059837608	0.8181543851090434	0.009430215901043017	-14.24644551096714	4.639218238438657	-6.889125706561593	-12.57533568248418	14.0156187558014	0	30.52077595319462	0.6900561403935886	-9.686297837759641	-3.760377826247662	1.648021500910892	0	-4.193999039155693	4.351422742739859	7.983737884917717
0.5686552334188972	-2.39360671587006	-0.5948287348161465	-4.749760588918931	0.6875198330066443	0.8157350446497026	0.009561881147500248	-14.87230744902897	3.925616067466344	-6.961492992075724	-13.35326169940784	13.4165378739876	0	30.94226916504774	1.140558515134015	-8.931646527425681	-6.123530410388347	0.3356839255623927	0	-3.927820769669736	3.634139421812602	7.79004757475642
0.5800283380872752	-2.425598226305352	-0.09471628464166928	-4.909405146588345	0.7044911147222032	0.8136106021942885	0.009628416981117934	-15.63004678678233	3.194392786042203	-7.013621255960676	-13.97456453176163	12.40145221277283	0	30.98083151813482	1.66028036418313	-8.00345331975057	-8.17217472417356	-0.2944342662470792	0	-3.52987369170296	2.937920828066669	7.579901835731768
0.5914014427556531	-2.436815149887086	0.3829368117329779	-5.058489289245724	0.7222404039530441	0.8119148170732159	0.009506007106932786	-16.46916159091901	2.470218356314586	-7.10253272668592	-14.48607168084086	10.92218162598423	0	30.82749484410338	2.251492183622345	-7.07308114635332	-10.0557232375558	-0.3620705556523977	0	-3.034375635171367	2.300580902851648	7.369293262626789
0.6027745474240311	-2.427287698574754	0.9677612755725605	-5.139120404330424	0.7402533822958129	0.8108200949757369	0.009059811040268491	-17.2552795001781	1.626789560046762	-7.311797985676094	-15.06049973470262	9.079653622507692	0	30.81564992793987	3.00648884553348	-6.304824915951518	-12.25787266331342	-0.04452269696143644	0	-2.514479371359702	1.573079595390514	7.155483076836925
0.614147652092409	-2.38962937921699	1.760508599198931	-5.120370962674499	0.7583763530198229	0.8104436775181445	0.008257345551190136	-17.93394704497299	0.5681683081522796	-7.668387690335115	-15.79344615493215	6.95033706667674	0	30.8606158042873	4.012327252031699	-5.81246726689085	-14.44974982025677	-0.1749780835519756	0	-1.999520513384991	0.6324851050128443	6.920642626772495
0.6255207567607869	-2.308683396096339	2.619870091996972	-4.992708838275334	0.7765775468569025	0.8107380427085255	0.007144695012829426	-18.49905670517124	-0.5567708025013482	-8.135808774944303	-16.76506302415921	4.607890029220092	0	30.9204798323423	5.113479275748609	-5.542599961464007	-16.71480000401992	-0.3501638529439866	0	-1.52566095403409	-0.3729133208624403	6.663964847219497
0.6368938614291649	-2.175274115155749	3.351296150925753	-4.766442347003123	0.7948537297515977	0.8115945035909959	0.005830747372847105	-18.90390352085294	-1.554574442973209	-8.661230877756894	-18.11987729948089	2.150161313372872	0	30.89258710582471	6.10971441106218	-5.401267236627824	-18.97052546266654	-0.415616912016698	0	-1.116198002207199	-1.238219156096568	6.389010747137725
0.6482669660975428	-1.995941390004953	3.913205280991675	-4.454459063590479	0.8130646373461596	0.812874712456809	0.004431501017767075	-18.99665918920929	-2.403394819433678	-9.186654017933602	-20.16663392364051	-0.06346534115327096	0	30.71147540163964	6.96215054628299	-5.275236646909543	-21.13794224632252	-0.07112596911128018	0	-0.7848966851936963	-1.937782670780527	6.088244606127117
0.6596400707659208	-1.789186871640749	4.355913076688454	-4.078152190554992	0.8310124067032892	0.8144641980271107	0.003035518716739774	-18.64523598489743	-3.177343345750873	-9.677531237670857	-23.10478352071776	-1.831617650288904	0	30.29523853599667	7.716287763067085	-5.150297104034598	-23.01463622718893	0.7090326148899682	0	-0.5330271264464915	-2.537570150900429	5.754340739693398
0.6710131754342987	-1.579423678578892	4.727133841159256	-3.673069452459686	0.8485049015294837	0.8162559311354179	0.00169245333924458	-17.80154707517737	-3.942094789226255	-10.07012402320379	-26.87424695549432	-3.324966152487813	0	29.61133237945571	8.400991155983061	-5.054959608553094	-24.45598819820857	1.815147438740967	0	-0.3542696939509428	-3.081860414831499	5.389142104171384
0.6823862801026767	-1.389820366596252	5.048366172685466	-3.277285739094971	0.8654081508778312	0.8181618414390408	0.0004204491507734991	-16.48933783532388	-4.721983550634938	-10.2824005640513	-31.23836419814568	-4.90535637818548	0	28.68424113610124	9.018809288238671	-4.996000300905751	-25.41113678804993	3.044145050949743	0	-0.2369835257809195	-3.575246066036061	4.996331548464291
0.6937593847710546	-1.238118416008733	5.332257718160135	-2.926782934621053	0.8816581906666716	0.8201309602926177	-0.0007766067056030833	-14.7380825013845	-5.528819156870767	-10.28433064168982	-35.96685167042912	-6.93779780370561	0	27.5672503929988	9.565889943131195	-4.985996647665208	-25.90656865072298	4.275687499375437	0	-0.1636112085731346	-4.011664017721448	4.584788403547956
0.7051324894394325	-1.133991863007291	5.576030953904253	-2.645422329348109	0.8972249064804438	0.8221352743518071	-0.001914375622888367	-12.58768224140878	-6.344758657691816	-10.09015480944	-40.85296198082219	-9.551519422483006	0	26.32033848290794	10.03170248245353	-5.03875523503841	-26.0033539465687	5.42532564817328	0	-0.1209484596995004	-4.36895564161343	4.1656350036459
0.7165055941078106	-1.078040620158567	5.765853201596411	-2.420309784976041	0.9121525414717043	0.8241763355613606	-0.002967994168531364	-10.17075460985975	-7.069980274126002	-9.70055350653876	-45.55845251680628	-12.33806302144179	0	24.99337647517939	10.40573911388782	-5.145329411689474	-25.78322404062443	6.451858399909026	0	-0.09816162594514355	-4.635136742760178	3.736409347686172
